<mxfile host="app.diagrams.net" modified="2023-10-17T17:26:22.933Z" agent="Mozilla/5.0 (Windows NT 10.0; Win64; x64) AppleWebKit/537.36 (KHTML, like Gecko) Chrome/117.0.0.0 Safari/537.36" etag="GBDOK2nbzLrQPfNWtzXe" version="22.0.4" type="google">
  <diagram name="Página-1" id="oKIlooJLRSVnscNaMvM3">
    <mxGraphModel grid="0" page="0" gridSize="10" guides="1" tooltips="1" connect="1" arrows="1" fold="1" pageScale="1" pageWidth="827" pageHeight="1169" math="0" shadow="0">
      <root>
        <mxCell id="0" />
        <mxCell id="1" parent="0" />
        <mxCell id="fFKaLA3j-pF5pswUggHf-1" value="" style="strokeWidth=2;html=1;shape=mxgraph.flowchart.start_2;whiteSpace=wrap;" vertex="1" parent="1">
          <mxGeometry x="-313" y="119" width="30" height="30" as="geometry" />
        </mxCell>
        <mxCell id="fFKaLA3j-pF5pswUggHf-2" value="" style="ellipse;shape=doubleEllipse;whiteSpace=wrap;html=1;aspect=fixed;perimeterSpacing=0;strokeWidth=2;" vertex="1" parent="1">
          <mxGeometry x="187" y="549" width="40" height="40" as="geometry" />
        </mxCell>
        <mxCell id="fFKaLA3j-pF5pswUggHf-3" value="Iniciar sesión como Paciente" style="rounded=1;whiteSpace=wrap;html=1;" vertex="1" parent="1">
          <mxGeometry x="-253" y="104" width="120" height="60" as="geometry" />
        </mxCell>
        <mxCell id="fFKaLA3j-pF5pswUggHf-4" value="" style="endArrow=classic;html=1;rounded=0;exitX=1;exitY=0.5;exitDx=0;exitDy=0;exitPerimeter=0;entryX=0;entryY=0.5;entryDx=0;entryDy=0;" edge="1" parent="1" source="fFKaLA3j-pF5pswUggHf-1" target="fFKaLA3j-pF5pswUggHf-3">
          <mxGeometry width="50" height="50" relative="1" as="geometry">
            <mxPoint x="-163" y="424" as="sourcePoint" />
            <mxPoint x="-113" y="374" as="targetPoint" />
          </mxGeometry>
        </mxCell>
        <mxCell id="fFKaLA3j-pF5pswUggHf-5" value="Completar formulario de registro glucemia" style="rounded=1;whiteSpace=wrap;html=1;" vertex="1" parent="1">
          <mxGeometry x="-43" y="189" width="140" height="60" as="geometry" />
        </mxCell>
        <mxCell id="fFKaLA3j-pF5pswUggHf-6" value="" style="endArrow=classic;html=1;rounded=0;exitX=1;exitY=0.5;exitDx=0;exitDy=0;entryX=0;entryY=0.5;entryDx=0;entryDy=0;" edge="1" parent="1" source="fFKaLA3j-pF5pswUggHf-3" target="fFKaLA3j-pF5pswUggHf-21">
          <mxGeometry width="50" height="50" relative="1" as="geometry">
            <mxPoint x="-263" y="159" as="sourcePoint" />
            <mxPoint x="-213" y="159" as="targetPoint" />
          </mxGeometry>
        </mxCell>
        <mxCell id="fFKaLA3j-pF5pswUggHf-7" value="Validador de formulario" style="rhombus;whiteSpace=wrap;html=1;" vertex="1" parent="1">
          <mxGeometry x="-223" y="280.25" width="100" height="87.5" as="geometry" />
        </mxCell>
        <mxCell id="fFKaLA3j-pF5pswUggHf-8" value="" style="endArrow=classic;html=1;rounded=0;exitX=0;exitY=0.5;exitDx=0;exitDy=0;entryX=0.5;entryY=0;entryDx=0;entryDy=0;" edge="1" parent="1" source="fFKaLA3j-pF5pswUggHf-5" target="fFKaLA3j-pF5pswUggHf-7">
          <mxGeometry width="50" height="50" relative="1" as="geometry">
            <mxPoint x="-93" y="159" as="sourcePoint" />
            <mxPoint x="-53" y="159" as="targetPoint" />
            <Array as="points">
              <mxPoint x="-173" y="219.5" />
            </Array>
          </mxGeometry>
        </mxCell>
        <mxCell id="fFKaLA3j-pF5pswUggHf-9" value="Notificación de &quot;Error al completar el formulario&quot;" style="rounded=1;whiteSpace=wrap;html=1;" vertex="1" parent="1">
          <mxGeometry x="-33" y="294" width="120" height="60" as="geometry" />
        </mxCell>
        <mxCell id="fFKaLA3j-pF5pswUggHf-10" value="No" style="endArrow=classic;html=1;rounded=0;exitX=1;exitY=0.5;exitDx=0;exitDy=0;entryX=0;entryY=0.5;entryDx=0;entryDy=0;" edge="1" parent="1" source="fFKaLA3j-pF5pswUggHf-7" target="fFKaLA3j-pF5pswUggHf-9">
          <mxGeometry width="50" height="50" relative="1" as="geometry">
            <mxPoint x="7" y="189" as="sourcePoint" />
            <mxPoint x="7" y="219" as="targetPoint" />
            <Array as="points" />
          </mxGeometry>
        </mxCell>
        <mxCell id="fFKaLA3j-pF5pswUggHf-11" value="" style="endArrow=classic;html=1;rounded=0;exitX=0.5;exitY=0;exitDx=0;exitDy=0;entryX=0.5;entryY=1;entryDx=0;entryDy=0;" edge="1" parent="1" source="fFKaLA3j-pF5pswUggHf-9" target="fFKaLA3j-pF5pswUggHf-5">
          <mxGeometry width="50" height="50" relative="1" as="geometry">
            <mxPoint x="187" y="149" as="sourcePoint" />
            <mxPoint x="137" y="261.5" as="targetPoint" />
            <Array as="points" />
          </mxGeometry>
        </mxCell>
        <mxCell id="fFKaLA3j-pF5pswUggHf-12" value="" style="endArrow=classic;html=1;rounded=0;exitX=0.5;exitY=1;exitDx=0;exitDy=0;entryX=0.5;entryY=0;entryDx=0;entryDy=0;" edge="1" parent="1" source="fFKaLA3j-pF5pswUggHf-7" target="fFKaLA3j-pF5pswUggHf-14">
          <mxGeometry width="50" height="50" relative="1" as="geometry">
            <mxPoint x="7" y="189" as="sourcePoint" />
            <mxPoint x="-3" y="319" as="targetPoint" />
            <Array as="points" />
          </mxGeometry>
        </mxCell>
        <mxCell id="fFKaLA3j-pF5pswUggHf-13" value="Si" style="edgeLabel;html=1;align=center;verticalAlign=middle;resizable=0;points=[];" connectable="0" vertex="1" parent="fFKaLA3j-pF5pswUggHf-12">
          <mxGeometry x="-0.4267" y="1" relative="1" as="geometry">
            <mxPoint as="offset" />
          </mxGeometry>
        </mxCell>
        <mxCell id="fFKaLA3j-pF5pswUggHf-14" value="Confirmar registro" style="rounded=1;whiteSpace=wrap;html=1;" vertex="1" parent="1">
          <mxGeometry x="-233" y="419" width="120" height="60" as="geometry" />
        </mxCell>
        <mxCell id="fFKaLA3j-pF5pswUggHf-15" value="Mensaje de registro completado con exito" style="rounded=1;whiteSpace=wrap;html=1;" vertex="1" parent="1">
          <mxGeometry x="-33" y="419" width="120" height="60" as="geometry" />
        </mxCell>
        <mxCell id="fFKaLA3j-pF5pswUggHf-16" value="" style="endArrow=classic;html=1;rounded=0;exitX=1;exitY=0.5;exitDx=0;exitDy=0;entryX=0;entryY=0.5;entryDx=0;entryDy=0;" edge="1" parent="1" source="fFKaLA3j-pF5pswUggHf-14" target="fFKaLA3j-pF5pswUggHf-15">
          <mxGeometry width="50" height="50" relative="1" as="geometry">
            <mxPoint x="7" y="189" as="sourcePoint" />
            <mxPoint x="7" y="219" as="targetPoint" />
            <Array as="points" />
          </mxGeometry>
        </mxCell>
        <mxCell id="fFKaLA3j-pF5pswUggHf-17" value="Registro de glucemia en base de datos" style="rounded=1;whiteSpace=wrap;html=1;" vertex="1" parent="1">
          <mxGeometry x="-38" y="539" width="130" height="60" as="geometry" />
        </mxCell>
        <mxCell id="fFKaLA3j-pF5pswUggHf-18" value="" style="endArrow=classic;html=1;rounded=0;exitX=0.5;exitY=1;exitDx=0;exitDy=0;" edge="1" parent="1" source="fFKaLA3j-pF5pswUggHf-15" target="fFKaLA3j-pF5pswUggHf-17">
          <mxGeometry width="50" height="50" relative="1" as="geometry">
            <mxPoint x="177" y="489" as="sourcePoint" />
            <mxPoint x="177" y="519" as="targetPoint" />
            <Array as="points" />
          </mxGeometry>
        </mxCell>
        <mxCell id="fFKaLA3j-pF5pswUggHf-19" value="" style="endArrow=classic;html=1;rounded=0;exitX=1;exitY=0.5;exitDx=0;exitDy=0;" edge="1" parent="1" source="fFKaLA3j-pF5pswUggHf-17" target="fFKaLA3j-pF5pswUggHf-2">
          <mxGeometry width="50" height="50" relative="1" as="geometry">
            <mxPoint x="177" y="579" as="sourcePoint" />
            <mxPoint x="177" y="609" as="targetPoint" />
            <Array as="points" />
          </mxGeometry>
        </mxCell>
        <mxCell id="fFKaLA3j-pF5pswUggHf-20" value="Campos desplegados:&lt;br&gt;- Glucemia" style="shape=note;whiteSpace=wrap;html=1;backgroundOutline=1;darkOpacity=0.05;" vertex="1" parent="1">
          <mxGeometry x="187" y="154" width="170" height="130" as="geometry" />
        </mxCell>
        <mxCell id="fFKaLA3j-pF5pswUggHf-21" value="Acceder a Registrar&amp;nbsp; Glucemia" style="rounded=1;whiteSpace=wrap;html=1;" vertex="1" parent="1">
          <mxGeometry x="-33" y="104" width="120" height="60" as="geometry" />
        </mxCell>
        <mxCell id="fFKaLA3j-pF5pswUggHf-22" value="" style="endArrow=classic;html=1;rounded=0;entryX=0.5;entryY=0;entryDx=0;entryDy=0;exitX=0.5;exitY=1;exitDx=0;exitDy=0;" edge="1" parent="1" source="fFKaLA3j-pF5pswUggHf-21" target="fFKaLA3j-pF5pswUggHf-5">
          <mxGeometry width="50" height="50" relative="1" as="geometry">
            <mxPoint x="-83" y="169" as="sourcePoint" />
            <mxPoint x="-183" y="274" as="targetPoint" />
          </mxGeometry>
        </mxCell>
        <mxCell id="fFKaLA3j-pF5pswUggHf-23" value="" style="endArrow=none;dashed=1;html=1;dashPattern=1 3;strokeWidth=2;rounded=0;exitX=1;exitY=0.5;exitDx=0;exitDy=0;" edge="1" parent="1" source="fFKaLA3j-pF5pswUggHf-5" target="fFKaLA3j-pF5pswUggHf-20">
          <mxGeometry width="50" height="50" relative="1" as="geometry">
            <mxPoint x="77" y="199" as="sourcePoint" />
            <mxPoint x="127" y="149" as="targetPoint" />
          </mxGeometry>
        </mxCell>
      </root>
    </mxGraphModel>
  </diagram>
</mxfile>
